PathFileType	4	(X/Y/Z)	C:/Users/dbak576/Desktop/Duncan Bakke Modelling Files/H25s1/Static_H25s1.trc	
DataRate	CameraRate	NumFrames	NumMarkers	Units	OrigDataRate	OrigDataStartFrame	OrigNumFrames	
200.00	200.00	4	62	mm	200.00	38	296	
Frame#	Time	LFHD			RFHD			LBHD			RBHD			C7			T10			CLAV			STRN			RBack			LASI			RASI			LPSI			RPSI			RACR1			RUA1			RElbow			RElbowM			RFA1			RWRR			RWRU			RCAR			LACR1			LUA1			LElbow			LElbowM			LFA1			LWRR			LWRU			LCAR			RTH1			RTH3			RTH2			RTH4			RLFC			RMFC			RTB1			RTB3			RTB2			RTB4			RLMAL			RMMAL			RCAL			RMT1			RMT5			RToe			LTH1			LTH3			LTH2			LTH4			LLFC			LMFC			LTB1			LTB3			LTB2			LTB4			LLMAL			LMMAL			LCAL			LMT1			LMT5			LToe			*61			
		X1	Y1	Z1	X2	Y2	Z2	X3	Y3	Z3	X4	Y4	Z4	X5	Y5	Z5	X6	Y6	Z6	X7	Y7	Z7	X8	Y8	Z8	X9	Y9	Z9	X10	Y10	Z10	X11	Y11	Z11	X12	Y12	Z12	X13	Y13	Z13	X14	Y14	Z14	X15	Y15	Z15	X16	Y16	Z16	X17	Y17	Z17	X18	Y18	Z18	X19	Y19	Z19	X20	Y20	Z20	X21	Y21	Z21	X22	Y22	Z22	X23	Y23	Z23	X24	Y24	Z24	X25	Y25	Z25	X26	Y26	Z26	X27	Y27	Z27	X28	Y28	Z28	X29	Y29	Z29	X30	Y30	Z30	X31	Y31	Z31	X32	Y32	Z32	X33	Y33	Z33	X34	Y34	Z34	X35	Y35	Z35	X36	Y36	Z36	X37	Y37	Z37	X38	Y38	Z38	X39	Y39	Z39	X40	Y40	Z40	X41	Y41	Z41	X42	Y42	Z42	X43	Y43	Z43	X44	Y44	Z44	X45	Y45	Z45	X46	Y46	Z46	X47	Y47	Z47	X48	Y48	Z48	X49	Y49	Z49	X50	Y50	Z50	X51	Y51	Z51	X52	Y52	Z52	X53	Y53	Z53	X54	Y54	Z54	X55	Y55	Z55	X56	Y56	Z56	X57	Y57	Z57	X58	Y58	Z58	X59	Y59	Z59	X60	Y60	Z60	X61	Y61	Z61	X62	Y62	Z62	

38	0.185	-64.33498	-266.04224	1730.42505	40.38076	-272.49615	1724.60254	-94.34652	-433.56747	1724.31116	47.22162	-444.66278	1720.29175	-22.89276	-515.36041	1571.99072	-31.23664	-512.79077	1210.25916	-36.73779	-335.87888	1504.87244	-16.32421	-250.62604	1340.33228	85.18276	-580.06024	1470.53748	-174.73802	-295.67590	1049.12659	144.06442	-325.03949	1050.81555	-87.81951	-524.64404	1096.73804	21.28622	-531.58270	1085.54443	132.30760	-432.82245	1569.52295	282.43210	-424.86697	1520.05505	429.57651	-394.70316	1456.13330	399.99780	-320.57382	1410.37390	563.93781	-338.54938	1502.19507	684.69916	-262.47879	1513.38525	696.49573	-283.05365	1430.82617	746.30139	-279.31940	1477.76587	-186.57634	-441.01520	1558.86304	-334.97214	-426.83365	1521.83533	-491.62628	-390.72403	1473.44629	-467.34372	-328.46613	1413.21606	-625.35297	-334.61667	1512.75842	-735.16589	-257.87381	1518.25085	-741.61462	-298.49142	1435.92737	-792.09241	-286.10425	1492.82581	192.26799	-460.45630	834.58746	196.74176	-463.67538	662.05530	209.05919	-404.85916	747.18488	195.01309	-464.28738	746.24023	200.78185	-465.59125	522.95941	51.74970	-463.02695	502.00906	133.60275	-422.32071	367.25546	138.40651	-451.39893	196.73074	197.50061	-440.88049	284.84357	135.42383	-437.10114	281.58160	187.95032	-516.00562	80.61655	96.40276	-482.88605	99.40099	150.13005	-576.00586	43.86667	135.94054	-354.29669	52.05336	231.16188	-397.03485	32.66033	149.34146	-300.82172	33.68558	-244.08174	-392.27011	833.62311	-224.48950	-411.21390	661.13928	-219.63559	-344.86099	742.40479	-238.74535	-400.89926	748.34723	-209.61604	-458.08322	516.65240	-67.42506	-451.78693	504.96359	-115.31281	-430.87546	361.60806	-121.05039	-452.64032	191.67868	-177.79381	-425.60904	275.81503	-117.19244	-444.15976	277.20358	-186.31039	-504.66656	72.85001	-87.39920	-481.61536	91.19287	-149.66357	-569.66150	44.80406	-133.59126	-342.20081	45.04227	-224.44543	-390.19980	28.92166	-153.59007	-285.40979	27.15368	-222.91905	-461.28201	917.20264 
39	0.190	-64.32965	-266.16586	1730.41809	40.40453	-272.53369	1724.63501	-94.32433	-433.65750	1724.29858	47.29367	-444.71509	1720.29431	-22.87177	-515.43506	1571.96179	-31.21786	-512.83997	1210.23792	-36.72112	-335.93005	1504.89319	-16.31974	-250.66458	1340.33276	85.20241	-580.11792	1470.50037	-174.74753	-295.76834	1049.11780	144.09814	-325.09335	1050.82227	-87.83257	-524.64600	1096.76746	21.32918	-531.62317	1085.54993	132.33490	-432.83655	1569.50671	282.45651	-424.89600	1520.09302	429.56763	-394.74414	1456.10388	400.01755	-320.59830	1410.34180	563.91986	-338.58279	1502.14160	684.69501	-262.51135	1513.31116	696.49969	-283.05573	1430.78442	746.24927	-279.38882	1477.71863	-186.55753	-441.06058	1558.88879	-335.04086	-426.93921	1521.84741	-491.62238	-390.82428	1473.47351	-467.36328	-328.48392	1413.25854	-625.33801	-334.67102	1512.85693	-735.16998	-257.96783	1518.32739	-741.56543	-298.51578	1435.93225	-792.07318	-286.17548	1492.87097	192.27577	-460.45154	834.57025	196.67744	-463.62326	662.10583	209.06996	-404.85028	747.16614	194.85211	-464.26331	746.14484	200.79564	-465.58472	522.98419	51.73512	-463.03363	501.98541	133.63737	-422.30453	367.28314	138.37732	-451.40448	196.69588	197.50890	-440.87521	284.84659	135.41345	-437.09616	281.58655	187.91322	-516.02032	80.61321	96.40410	-482.87573	99.39405	150.13490	-576.01123	43.87463	135.93880	-354.29803	52.05296	231.12628	-397.04034	32.69447	149.33466	-300.81064	33.68167	-244.06770	-392.30457	833.62610	-224.52115	-411.26331	661.20288	-219.65298	-344.91293	742.41479	-238.76280	-400.89493	748.37695	-209.60243	-458.10263	516.63220	-67.46319	-451.79892	504.96045	-115.30710	-430.81549	361.54181	-121.04418	-452.57224	191.68848	-177.81171	-425.61270	275.82346	-117.16914	-444.16721	277.16583	-186.33388	-504.66751	72.84779	-87.41121	-481.59818	91.20729	-149.70164	-569.68488	44.81579	-133.58987	-342.18134	45.04627	-224.33743	-390.16299	28.92633	-153.60847	-285.39923	27.13919	-222.92825	-461.30432	917.21332 
40	0.195	-64.28072	-266.34549	1730.51392	40.46042	-272.60788	1724.68652	-94.27084	-433.76517	1724.27283	47.33259	-444.82190	1720.29138	-22.88707	-515.55280	1571.95667	-31.21815	-512.84448	1210.23633	-36.73933	-335.99506	1504.90088	-16.34050	-250.67496	1340.33850	85.17818	-580.18567	1470.47095	-174.73436	-295.77164	1049.12256	144.06201	-325.11319	1050.81104	-87.82597	-524.68372	1096.77002	21.34636	-531.63361	1085.51465	132.36118	-432.89929	1569.50427	282.45511	-424.96072	1519.97729	429.56134	-394.76752	1456.07764	400.00613	-320.66489	1410.32019	563.92133	-338.66833	1502.08923	684.68781	-262.53937	1513.28052	696.54834	-283.11954	1430.76050	746.27313	-279.41077	1477.63110	-186.63609	-441.19894	1558.99438	-335.04532	-427.00439	1521.87634	-491.65970	-390.88214	1473.51392	-467.33264	-328.59396	1413.28015	-625.32446	-334.75806	1512.91174	-735.18878	-258.06439	1518.39343	-741.57526	-298.56601	1436.00928	-792.05908	-286.27716	1492.93665	192.27609	-460.45074	834.56909	196.76498	-463.64072	662.04559	209.08961	-404.84564	747.17108	194.90265	-464.30402	746.15082	200.80797	-465.58069	523.00507	51.75552	-463.01697	502.03183	133.61172	-422.29642	367.27121	138.39336	-451.39807	196.71609	197.65869	-440.89200	284.97348	135.41283	-437.10107	281.58530	187.94325	-516.00958	80.61690	96.40881	-482.88647	99.37563	150.10172	-575.98322	43.86856	135.92781	-354.30481	52.05327	231.12283	-397.03534	32.65101	149.33397	-300.81491	33.69623	-244.08270	-392.32260	833.62750	-224.53949	-411.27234	661.19006	-219.62126	-344.93835	742.39331	-238.78053	-400.89771	748.38501	-209.59309	-458.10669	516.60260	-67.43439	-451.76062	504.98907	-115.33626	-430.81534	361.54105	-121.00192	-452.61472	191.64632	-177.81555	-425.61349	275.82339	-117.18171	-444.22919	277.18396	-186.34247	-504.68155	72.79384	-87.41461	-481.57202	91.18641	-149.68304	-569.67590	44.79487	-133.60097	-342.17633	45.05668	-224.32040	-390.15424	28.93112	-153.59798	-285.44424	27.18123	-222.94809	-461.35751	917.21478 
41	0.200	-64.26147	-266.45117	1730.48535	40.51917	-272.64706	1724.72791	-94.24812	-433.86044	1724.26050	47.34242	-444.90906	1720.29797	-22.90166	-515.61615	1571.92896	-31.18555	-512.85773	1210.23657	-36.75162	-336.03375	1504.89758	-16.32504	-250.72873	1340.33557	85.17161	-580.21985	1470.47449	-174.68066	-295.80524	1049.11267	144.09581	-325.09967	1050.81982	-87.82497	-524.68597	1096.76941	21.34019	-531.63635	1085.53284	132.37572	-432.91711	1569.50024	282.48160	-425.01563	1519.99817	429.59653	-394.84280	1456.03821	400.01208	-320.73975	1410.26904	563.89801	-338.69833	1502.01782	684.69806	-262.58954	1513.25415	696.55878	-283.17789	1430.73511	746.23126	-279.43781	1477.59753	-186.62801	-441.21613	1559.00696	-335.02182	-427.06891	1521.88379	-491.65906	-390.93256	1473.50354	-467.28693	-328.65982	1413.31726	-625.31024	-334.85678	1512.96643	-735.21820	-258.20978	1518.44727	-741.57288	-298.61615	1436.03491	-792.05658	-286.37692	1492.99121	192.27583	-460.45099	834.56958	196.69389	-463.59268	662.10779	209.09503	-404.87692	747.17871	194.93277	-464.31931	746.14758	200.78386	-465.59103	522.96143	51.73434	-463.03534	501.98956	133.60777	-422.30026	367.26880	138.37682	-451.40509	196.69475	197.54942	-440.87933	284.87289	135.44687	-437.15778	281.57248	187.94942	-516.00702	80.61823	96.39726	-482.87646	99.41820	150.11040	-576.01300	43.85155	135.95775	-354.30399	52.02842	231.12253	-397.05966	32.68351	149.35568	-300.85397	33.67360	-244.08684	-392.32227	833.63763	-224.53133	-411.34079	661.18268	-219.65343	-345.00812	742.38373	-238.75330	-400.97635	748.34894	-209.58467	-458.17447	516.60071	-67.42579	-451.85596	504.99796	-115.30676	-430.95316	361.65375	-120.97627	-452.62012	191.71349	-177.82693	-425.64520	275.82516	-117.18428	-444.24283	277.18857	-186.33781	-504.65775	72.86688	-87.42547	-481.59464	91.19723	-149.69894	-569.66370	44.77488	-133.59651	-342.18839	45.03490	-224.43091	-390.18741	28.94745	-153.59947	-285.41544	27.16132	-222.96486	-461.39966	917.22754 
